Coordinates
version=1
nRows=25
nColumns=33
inDegrees=yes

Units are S.I. units (second, meters, Newtons, ...)
Angles are in degrees.

endheader
time	ground_thorax_rot_x	ground_thorax_rot_y	ground_thorax_rot_z	ground_thorax_tx	ground_thorax_ty	ground_thorax_tz	clav_prot_r	clav_elev_r	scapula_abduction_r	scapula_elevation_r	scapula_upward_rot_r	scapula_winging_r	shoulder_elv_r	plane_of_elev_r	axial_rot_r	elbow_flexion_r	pro_sup_r	wrist_flex_r	wrist_dev_r	clav_prot_l	clav_elev_l	scapula_abduction_l	scapula_elevation_l	scapula_upward_rot_l	scapula_winging_l	shoulder_elv_l	plane_of_elev_l	axial_rot_l	elbow_flexion_l	pro_sup_l	wrist_flex_l	wrist_dev_l	
5.8100	24.378427	33.470510	50.515113	88.457324	780.739568	-41.599662	13.502561	36.404001	27.957554	45.000000	-45.000000	-1159.459631	-2449.046703	22.622590	180.000000	363.574426	-172.604627	13.366315	11.349200	-13.890531	-45.000000	-36.003126	45.000000	-45.000000	-3500.014434	1515.144590	25.741108	29.950190	1790.935325	49.006896	10.486168	-16.036078	
5.8200	24.439851	33.467300	50.362542	88.436394	780.521448	-41.687615	13.481688	36.361332	27.925965	45.000000	-45.000000	-1159.440333	-2449.010966	22.650477	180.000000	363.579638	-172.593374	13.322602	11.390128	-13.901648	-45.000000	-35.982671	45.000000	-45.000000	-3500.040728	1515.199551	25.715509	29.899330	1790.956570	49.005191	10.453407	-16.045923	
5.8300	24.513846	33.455808	50.205133	88.375798	780.299243	-41.776260	13.434408	36.246664	27.885128	45.000000	-45.000000	-1159.404616	-2448.947390	22.682547	180.000000	363.551044	-172.569076	13.198492	11.465735	-13.918629	-45.000000	-35.927084	45.000000	-45.000000	-3500.117544	1515.289361	25.642993	29.824675	1790.969946	48.990824	10.386375	-16.049742	
5.8400	24.567044	33.454291	50.066619	88.229414	780.067026	-41.866176	13.410152	36.205005	27.873798	45.000000	-45.000000	-1159.391130	-2448.922710	22.679671	180.000000	363.558302	-172.542815	13.163451	11.503138	-13.919896	-45.000000	-35.909096	45.000000	-45.000000	-3500.132789	1515.340299	25.608195	29.749335	1790.987635	48.959389	10.365536	-16.060832	
5.8500	24.613844	33.452687	49.929669	87.992196	779.823931	-41.958248	13.398880	36.198474	27.861840	45.000000	-45.000000	-1159.389347	-2448.909641	22.678203	180.000000	363.583316	-172.511148	13.166725	11.526292	-13.915610	-45.000000	-35.911609	45.000000	-45.000000	-3500.115173	1515.371165	25.593853	29.666706	1791.005902	48.908400	10.369573	-16.068879	
5.8600	24.660025	33.448313	49.793862	87.653358	779.568497	-42.053491	13.386385	36.188373	27.858678	45.000000	-45.000000	-1159.387075	-2448.900149	22.656872	180.000000	363.607626	-172.469381	13.171990	11.546126	-13.900889	-45.000000	-35.913414	45.000000	-45.000000	-3500.094470	1515.401699	25.571940	29.564700	1791.021354	48.834862	10.379054	-16.079063	
5.8700	24.701256	33.439542	49.655765	87.213547	779.300632	-42.153092	13.384343	36.203955	27.847026	45.000000	-45.000000	-1159.394616	-2448.900213	22.646904	180.000000	363.646714	-172.420064	13.200246	11.559385	-13.885279	-45.000000	-35.937222	45.000000	-45.000000	-3500.046981	1515.419330	25.564347	29.455052	1791.037083	48.742452	10.405642	-16.080204	
5.8800	24.750410	33.422001	49.508822	86.678213	779.021126	-42.258235	13.372306	36.186629	27.830243	45.000000	-45.000000	-1159.389515	-2448.889156	22.629789	180.000000	363.673437	-172.355737	13.196270	11.581054	-13.862526	-45.000000	-35.946262	45.000000	-45.000000	-3500.020595	1515.453644	25.533130	29.321995	1791.046871	48.633923	10.420836	-16.082693	
5.8900	24.796643	33.399392	49.358249	86.053038	778.731152	-42.369876	13.370943	36.195619	27.798483	45.000000	-45.000000	-1159.394680	-2448.883838	22.632452	180.000000	363.714836	-172.280154	13.214662	11.594768	-13.841495	-45.000000	-35.974306	45.000000	-45.000000	-3499.967547	1515.474834	25.519064	29.184865	1791.057181	48.519292	10.450348	-16.075181	
5.9000	24.850876	33.370516	49.201305	85.343184	778.431985	-42.488729	13.359227	36.173214	27.766258	45.000000	-45.000000	-1159.389446	-2448.867450	22.619983	180.000000	363.740329	-172.184919	13.207179	11.611220	-13.811409	-45.000000	-35.982164	45.000000	-45.000000	-3499.935330	1515.511656	25.484227	29.026762	1791.063997	48.404216	10.466692	-16.074567	
5.9100	24.903940	33.339446	49.041443	84.553570	778.124948	-42.614915	13.357461	36.179881	27.718028	45.000000	-45.000000	-1159.398735	-2448.853131	22.630122	180.000000	363.779232	-172.074772	13.226251	11.617604	-13.786200	-45.000000	-36.006521	45.000000	-45.000000	-3499.876022	1515.532195	25.470316	28.867571	1791.072235	48.301161	10.495858	-16.064804	
5.9200	24.974748	33.302498	48.863564	83.687637	777.811087	-42.747789	13.346860	36.158178	27.658532	45.000000	-45.000000	-1159.396846	-2448.814441	22.636930	180.000000	363.800689	-171.944892	13.224992	11.622328	-13.751590	-45.000000	-36.003705	45.000000	-45.000000	-3499.840511	1515.563983	25.445214	28.688333	1791.073930	48.216469	10.513628	-16.067262	
5.9300	25.046079	33.264902	48.683394	82.747355	777.492025	-42.885327	13.346698	36.158816	27.583404	45.000000	-45.000000	-1159.409376	-2448.773917	22.663531	180.000000	363.830607	-171.801427	13.245183	11.619028	-13.721656	-45.000000	-36.015249	45.000000	-45.000000	-3499.783262	1515.580832	25.436547	28.508050	1791.077548	48.160273	10.537137	-16.061675	
5.9400	25.129377	33.221772	48.492317	81.732930	777.169464	-43.024447	13.333729	36.136786	27.513948	45.000000	-45.000000	-1159.417055	-2448.723898	22.673748	180.000000	363.846365	-171.642204	13.250303	11.617881	-13.686253	-45.000000	-36.008897	45.000000	-45.000000	-3499.744414	1515.609570	25.413622	28.312277	1791.081151	48.134804	10.546962	-16.069141	
5.9500	25.202486	33.180359	48.311952	80.642947	776.845608	-43.161077	13.331435	36.140175	27.441824	45.000000	-45.000000	-1159.443638	-2448.687078	22.691602	180.000000	363.878498	-171.473911	13.277071	11.612179	-13.663174	-45.000000	-36.031601	45.000000	-45.000000	-3499.680022	1515.625068	25.398466	28.121002	1791.093574	48.145360	10.558626	-16.065752	
5.9600	25.281560	33.132146	48.125053	79.475699	776.522503	-43.291061	13.319229	36.126990	27.377785	45.000000	-45.000000	-1159.466075	-2448.647619	22.691931	180.000000	363.906370	-171.293900	13.293104	11.609489	-13.635029	-45.000000	-36.049218	45.000000	-45.000000	-3499.629065	1515.650933	25.368336	27.919353	1791.110815	48.189935	10.558532	-16.075729	
5.9700	25.352140	33.079099	47.946579	78.230233	776.202104	-43.410673	13.312978	36.129872	27.317594	45.000000	-45.000000	-1159.501004	-2448.620305	22.693505	180.000000	363.949694	-171.106700	13.320888	11.609227	-13.613112	-45.000000	-36.088402	45.000000	-45.000000	-3499.557974	1515.670480	25.343118	27.722185	1791.136177	48.269069	10.555991	-16.078988	
5.9800	25.433955	33.013224	47.753735	76.908050	775.885507	-43.517561	13.293652	36.120481	27.264419	45.000000	-45.000000	-1159.530441	-2448.587910	22.684055	180.000000	363.991228	-170.913756	13.340459	11.613846	-13.584077	-45.000000	-36.113750	45.000000	-45.000000	-3499.498889	1515.700436	25.312312	27.516593	1791.163031	48.378104	10.547255	-16.098050	
5.9900	25.515981	32.940872	47.560888	75.511959	775.573151	-43.610717	13.277808	36.121215	27.207800	45.000000	-45.000000	-1159.569423	-2448.556533	22.682638	180.000000	364.041861	-170.722180	13.363656	11.623939	-13.560314	-45.000000	-36.143424	45.000000	-45.000000	-3499.426277	1515.724928	25.292288	27.313826	1791.189341	48.515223	10.536567	-16.110936	
6.0000	25.608004	32.858289	47.353814	74.046197	775.265074	-43.690303	13.254856	36.103946	27.149015	45.000000	-45.000000	-1159.599027	-2448.514016	22.671956	180.000000	364.085500	-170.534824	13.374378	11.634251	-13.524677	-45.000000	-36.158883	45.000000	-45.000000	-3499.370692	1515.759802	25.264033	27.101949	1791.214109	48.673676	10.520208	-16.139853	
6.0100	25.700382	32.768950	47.144005	72.514621	774.961532	-43.757039	13.233599	36.096556	27.087232	45.000000	-45.000000	-1159.637167	-2448.472000	22.671176	180.000000	364.137234	-170.357074	13.385994	11.650546	-13.493574	-45.000000	-36.179134	45.000000	-45.000000	-3499.302456	1515.789675	25.246417	26.894269	1791.237177	48.850132	10.502303	-16.160963	
6.0200	25.798269	32.673080	46.923346	70.920706	774.663260	-43.811870	13.210952	36.076305	27.017263	45.000000	-45.000000	-1159.667428	-2448.421415	22.665795	180.000000	364.185190	-170.190996	13.388014	11.659740	-13.456701	-45.000000	-36.193006	45.000000	-45.000000	-3499.248350	1515.828117	25.217849	26.682470	1791.262562	49.036525	10.481863	-16.194968	
6.0300	25.894433	32.574878	46.703205	69.266560	774.371727	-43.855602	13.191234	36.073498	26.944435	45.000000	-45.000000	-1159.715263	-2448.374288	22.673700	180.000000	364.242199	-170.037637	13.394567	11.677327	-13.429767	-45.000000	-36.217888	45.000000	-45.000000	-3499.175778	1515.854646	25.202155	26.481901	1791.289672	49.229616	10.461418	-16.213955	
6.0400	25.984800	32.475789	46.485941	67.553756	774.089060	-43.888841	13.176279	36.052729	26.866885	45.000000	-45.000000	-1159.754512	-2448.323263	22.664378	180.000000	364.294744	-169.892244	13.391153	11.685157	-13.393276	-45.000000	-36.247856	45.000000	-45.000000	-3499.116948	1515.891844	25.165322	26.282486	1791.324083	49.421262	10.437345	-16.245518	
6.0500	26.078868	32.369932	46.264114	65.783874	773.817882	-43.912052	13.154495	36.049526	26.797050	45.000000	-45.000000	-1159.808787	-2448.276672	22.663213	180.000000	364.357192	-169.750525	13.389880	11.699094	-13.362470	-45.000000	-36.284650	45.000000	-45.000000	-3499.041082	1515.918896	25.142714	26.094802	1791.356996	49.609533	10.414447	-16.265668	
